. 
  
http://www.torrenting.com/        :     Greatest Movie Tracker on The Net!!!
 
http://www.Torrenting.com          :     Once & For all ;)


               www . Torrenting . Com 

(((((((((((((= Enjoy No RAR releases =))))))))))))))))))))


...................................NFO:....................................

.                                                                                                     
       
     
     
       
       
     
     
                                         
                                         
                EXVID                    
                                         
         
                                         
         Filled the Archives             
                                         
         
                                         
                With:                    
                                         
         
                                         
                                    
     E240                           
                                    
     SP               (C) 2009      
                                         
     
     
     
                                                                                  
                                                                                   
           Gods.and.Generals.2003.EXTENDED.DC.BDRip.XviD-EXViD                      
                                                                                   
                                                                                  
     
                                                                                               
EXViD aims to iNTERNAL those releases which have been lost in the archives.
EXViD aims to PRE non-internal releases which have poor sources and are likely skipped by others.
 
http://www.imdb.com/title/tt0279111/
Subtitles: English
Date: 2011.09

Director: Ronald F. Maxwell

Genres: Action | Drama | History | War

Plot:
Based on the best-selling historical novel by Jeff Shaara, "Gods and Generals" covers the
events of the American Civil War before the climactic battle of Gettysburg. Seen from the
points of view of leaders such as Thomas "Stonewall" Jackson, Joshua Lawrence Chamberlain,
Winfield Scott Hancock and Robert E. Lee, the film begins just after the attack on Fort
Sumter in April 1861, and culminates with the battle of Chancellorsville in May of 1863.
Directed by Ronald F. Maxwell, the film is an epic, dramatic prequel to "Gettysburg," the
classic 1993 film also directed by Maxwell.

Cast:
Robert Duvall 	 ... 	 Gen. Robert E. Lee
Stephen Lang 	 ... 	 Lt. Gen. Thomas 'Stonewall' Jackson
Jeff Daniels 	 ... 	 Lt. Col. Joshua Lawrence Chamberlain
Mira Sorvino 	 ... 	 Frances Caroline 'Fanny' Chamberlain
Bruce Boxleitner 	 ... 	 Lt. Gen. James Longstreet
C. Thomas Howell 	 ... 	 Sgt. Thomas Chamberlain
Frankie Faison 	 ... 	 Jim Lewis
Matt Letscher 	 ... 	 Col. Adelbert Ames
Jeremy London 	 ... 	 Capt. Alexander 'Sandie' Pendleton
William Sanderson 	 ... 	 Maj. Gen. A. P. Hill
Kali Rocha 	 ... 	 Anna Morrison Jackson
Brian Mallon 	 ... 	 Maj. Gen. Winfield Scott Hancock
Mia Dillon 	 ... 	 Jane Beale
Donzaleigh Abernathy 	 ... 	 Martha
George Allen 	 ... 	 Confederate Officer

Stats:
Format                           : AVI
Format/Info                      : Audio Video Interleave
Format profile                   : OpenDML
File size                        : 2.06 GiB
Duration                         : 4h 39mn
Overall bit rate                 : 1 053 Kbps
Writing application              : Nandub v1.0rc2
Writing library                  : Nandub build 1852/release

Video
ID                               : 0
Format                           : MPEG-4 Visual
Format profile                   : Advanced Simple@L5
Format settings, BVOP            : 2
Format settings, QPel            : No
Format settings, GMC             : No warppoints
Format settings, Matrix          : Default (H.263)
Codec ID                         : XVID
Codec ID/Hint                    : XviD
Duration                         : 4h 39mn
Bit rate                         : 915 Kbps
Width                            : 608 pixels
Height                           : 256 pixels
Display aspect ratio             : 2.40:1
Frame rate                       : 23.976 fps
Color space                      : YUV
Chroma subsampling               : 4:2:0
Bit depth                        : 8 bits
Scan type                        : Progressive
Compression mode                 : Lossy
Bits/(Pixel*Frame)               : 0.245
Stream size                      : 1.79 GiB (87%)
Writing library                  : XviD 64

Audio
ID                               : 1
Format                           : MPEG Audio
Format version                   : Version 1
Format profile                   : Layer 3
Mode                             : Joint stereo
Mode extension                   : MS Stereo
Codec ID                         : 55
Codec ID/Hint                    : MP3
Duration                         : 4h 39mn
Bit rate mode                    : Variable
Bit rate                         : 121 Kbps
Nominal bit rate                 : 128 Kbps
Channel(s)                       : 2 channels
Sampling rate                    : 48.0 KHz
Compression mode                 : Lossy
Stream size                      : 243 MiB (12%)
Alignment                        : Aligned on interleaves
Interleave, duration             : 24 ms (0.58 video frame)
Interleave, preload duration     : 456 ms
Writing library                  : LAME3.98r
Encoding settings                : -m j -V 4 -q 3 -lowpass 17 --abr 128




Release notes:
KYD did the THEATRiCAL cut, this is the EXTENDED DC.

See http://www.movie-censorship.com/report.php?ID=401805 for differences.

enjoy!

Looking for:
75TB+ Archives
DUTCH/FLEMiSH Archives
                                                                                                    
Greets: CRBS EPiSODE FiCO FLS iLS KLASSiGER LiPSYNC MADE NODLABS RUNNER SPRiNTER      
   

                                                                    ASCII DONE BY XX^NFO 2oo9